<svg width="1016" height="342" viewBox="0 0 1016 342" fill="none" xmlns="http://www.w3.org/2000/svg">
<path d="M278.924 83.9452C278.661 87.5935 278.806 91.2597 279.355 94.876C279.411 95.1895 279.561 95.4785 279.786 95.7036C280.011 95.9287 280.3 96.079 280.614 96.1343C284.227 96.679 287.889 96.8201 291.534 96.555C299.629 95.9958 306.179 93.4231 310.483 89.1193C313.682 85.9204 315.479 81.5817 315.479 77.0577C315.479 72.5337 313.682 68.195 310.483 64.9961C307.284 61.7971 302.945 60 298.421 60C293.897 60 289.558 61.7971 286.359 64.9961C282.056 69.2999 279.483 75.8502 278.924 83.9452Z" fill="#3175FA"/>
<path d="M99.2002 129.163C102.729 120.693 112.457 116.687 120.927 120.216L232.232 166.589C240.702 170.118 244.708 179.846 241.179 188.316C237.65 196.787 227.922 200.793 219.452 197.263L108.147 150.89C99.6769 147.361 95.6711 137.634 99.2002 129.163Z" fill="#003377"/>
<path d="M105.237 179.587C110.74 172.243 121.153 170.751 128.497 176.253L206.457 234.667C213.801 240.169 215.293 250.583 209.791 257.926C204.289 265.27 193.875 266.763 186.531 261.26L108.571 202.846C101.228 197.344 99.735 186.93 105.237 179.587Z" fill="#003377"/>
<path d="M97.1598 137.513C95.8983 128.424 102.244 120.033 111.333 118.772L253.12 99.0934C262.209 97.8319 270.6 104.177 271.861 113.267C273.122 122.356 266.777 130.747 257.688 132.008L115.901 151.686C106.812 152.948 98.4212 146.602 97.1598 137.513Z" fill="#3175FA"/>
<path d="M101.752 190.491C101.174 181.333 108.13 173.44 117.288 172.862L226.528 165.967C235.686 165.389 243.579 172.345 244.157 181.503C244.735 190.661 237.78 198.553 228.622 199.131L119.381 206.027C110.223 206.605 102.33 199.649 101.752 190.491Z" fill="#3175FA"/>
<path d="M101.756 254.854C101.15 245.697 108.082 237.784 117.239 237.179L196.026 231.97C205.183 231.365 213.096 238.297 213.701 247.453C214.307 256.61 207.375 264.523 198.218 265.128L119.43 270.337C110.274 270.942 102.361 264.01 101.756 254.854Z" fill="#3175FA"/>
<path d="M387.578 106.465C387.369 104.165 386.438 102.377 384.786 101.101C383.155 99.8042 380.823 99.1559 377.791 99.1559C375.783 99.1559 374.11 99.4173 372.771 99.9402C371.433 100.463 370.429 101.185 369.76 102.105C369.09 103.004 368.745 104.039 368.724 105.21C368.683 106.172 368.871 107.02 369.289 107.751C369.728 108.483 370.356 109.132 371.171 109.696C372.008 110.24 373.012 110.721 374.183 111.14C375.354 111.558 376.672 111.924 378.136 112.237L383.657 113.492C386.836 114.182 389.638 115.103 392.064 116.253C394.511 117.403 396.561 118.773 398.213 120.363C399.886 121.952 401.151 123.782 402.009 125.852C402.866 127.923 403.305 130.244 403.326 132.817C403.305 136.874 402.281 140.356 400.252 143.263C398.223 146.17 395.306 148.397 391.5 149.945C387.714 151.493 383.145 152.267 377.791 152.267C372.416 152.267 367.731 151.461 363.737 149.851C359.742 148.241 356.636 145.794 354.419 142.51C352.203 139.227 351.063 135.075 351 130.056H365.87C365.995 132.127 366.549 133.852 367.532 135.232C368.515 136.613 369.864 137.658 371.579 138.369C373.315 139.08 375.323 139.436 377.602 139.436C379.694 139.436 381.471 139.154 382.935 138.589C384.42 138.024 385.56 137.24 386.355 136.236C387.15 135.232 387.557 134.082 387.578 132.785C387.557 131.572 387.181 130.537 386.449 129.68C385.717 128.801 384.588 128.048 383.061 127.421C381.555 126.773 379.631 126.177 377.289 125.633L370.575 124.064C365.012 122.789 360.631 120.729 357.431 117.884C354.231 115.019 352.642 111.15 352.663 106.277C352.642 102.303 353.708 98.8213 355.862 95.8306C358.017 92.8399 360.997 90.5081 364.803 88.835C368.609 87.1618 372.949 86.3253 377.822 86.3253C382.799 86.3253 387.118 87.1723 390.778 88.8663C394.459 90.5394 397.314 92.8922 399.342 95.9247C401.371 98.9572 402.406 102.471 402.448 106.465H387.578Z" fill="#003377"/>
<path d="M420.172 151.451L407.624 103.265H423.027L429.521 134.134H429.929L436.893 103.265H451.92L459.072 133.915H459.48L465.785 103.265H481.188L468.609 151.451H452.202L444.673 123.374H444.14L436.611 151.451H420.172Z" fill="#003377"/>
<path d="M508.834 152.361C503.794 152.361 499.444 151.367 495.784 149.38C492.145 147.373 489.342 144.518 487.376 140.816C485.431 137.094 484.459 132.67 484.459 127.546C484.459 122.569 485.442 118.219 487.408 114.496C489.374 110.753 492.145 107.846 495.721 105.775C499.297 103.684 503.511 102.638 508.363 102.638C511.793 102.638 514.93 103.171 517.775 104.238C520.619 105.305 523.076 106.884 525.147 108.975C527.217 111.066 528.827 113.649 529.978 116.724C531.128 119.777 531.703 123.28 531.703 127.233V131.06H489.823V122.151H517.429C517.409 120.519 517.022 119.066 516.269 117.79C515.516 116.514 514.481 115.521 513.163 114.81C511.866 114.078 510.371 113.712 508.677 113.712C506.962 113.712 505.425 114.099 504.066 114.873C502.706 115.626 501.629 116.661 500.834 117.978C500.04 119.275 499.621 120.749 499.579 122.402V131.468C499.579 133.434 499.966 135.159 500.74 136.644C501.514 138.108 502.612 139.248 504.034 140.063C505.456 140.879 507.15 141.287 509.116 141.287C510.476 141.287 511.71 141.099 512.818 140.722C513.926 140.346 514.878 139.791 515.673 139.059C516.467 138.327 517.063 137.428 517.461 136.362L531.546 136.769C530.961 139.927 529.674 142.678 527.688 145.02C525.722 147.341 523.139 149.15 519.939 150.447C516.739 151.723 513.038 152.361 508.834 152.361Z" fill="#003377"/>
<path d="M553.121 152.267C550.047 152.267 547.318 151.754 544.934 150.729C542.57 149.684 540.699 148.115 539.318 146.024C537.959 143.911 537.279 141.266 537.279 138.087C537.279 135.41 537.75 133.151 538.691 131.311C539.632 129.47 540.929 127.975 542.581 126.825C544.233 125.675 546.136 124.807 548.29 124.221C550.445 123.615 552.745 123.207 555.192 122.998C557.932 122.747 560.138 122.485 561.811 122.213C563.484 121.921 564.697 121.513 565.45 120.99C566.224 120.446 566.611 119.683 566.611 118.7V118.543C566.611 116.933 566.057 115.688 564.948 114.81C563.84 113.932 562.344 113.492 560.462 113.492C558.434 113.492 556.802 113.932 555.568 114.81C554.334 115.688 553.55 116.901 553.216 118.449L539.067 117.947C539.486 115.019 540.563 112.405 542.299 110.104C544.055 107.783 546.46 105.963 549.514 104.646C552.588 103.307 556.279 102.638 560.588 102.638C563.662 102.638 566.496 103.004 569.089 103.736C571.682 104.447 573.941 105.493 575.865 106.873C577.789 108.233 579.274 109.906 580.32 111.892C581.386 113.879 581.92 116.148 581.92 118.7V151.451H567.489V144.738H567.113C566.255 146.369 565.157 147.749 563.819 148.878C562.501 150.008 560.943 150.855 559.145 151.42C557.367 151.984 555.359 152.267 553.121 152.267ZM557.858 142.228C559.511 142.228 560.996 141.893 562.313 141.224C563.652 140.555 564.718 139.635 565.513 138.463C566.308 137.271 566.705 135.891 566.705 134.322V129.742C566.266 129.972 565.732 130.182 565.105 130.37C564.499 130.558 563.829 130.736 563.097 130.903C562.365 131.07 561.612 131.217 560.839 131.342C560.065 131.468 559.322 131.583 558.611 131.687C557.168 131.917 555.934 132.273 554.91 132.754C553.906 133.235 553.132 133.862 552.588 134.636C552.065 135.389 551.804 136.288 551.804 137.334C551.804 138.924 552.369 140.137 553.498 140.973C554.648 141.81 556.102 142.228 557.858 142.228Z" fill="#003377"/>
<path d="M618.498 103.265V114.559H588.1V103.265H618.498ZM594.468 91.7211H609.808V136.299C609.808 137.24 609.955 138.003 610.247 138.589C610.561 139.154 611.011 139.561 611.596 139.812C612.182 140.042 612.883 140.157 613.698 140.157C614.284 140.157 614.901 140.105 615.549 140.001C616.218 139.875 616.72 139.771 617.055 139.687L619.376 150.761C618.644 150.97 617.609 151.231 616.271 151.545C614.953 151.859 613.374 152.057 611.534 152.141C607.937 152.308 604.852 151.89 602.279 150.886C599.728 149.861 597.772 148.272 596.413 146.118C595.075 143.964 594.426 141.255 594.468 137.993V91.7211Z" fill="#003377"/>
<path d="M645.304 151.451V87.2037H690.102V99.8147H660.833V112.99H687.812V125.633H660.833V138.84H690.102V151.451H645.304Z" fill="#003377"/>
<path d="M731.291 169.52V143.64H730.978C730.329 145.124 729.409 146.515 728.217 147.812C727.025 149.109 725.53 150.154 723.731 150.949C721.953 151.744 719.852 152.141 717.426 152.141C713.87 152.141 710.639 151.221 707.732 149.38C704.825 147.54 702.504 144.779 700.768 141.099C699.032 137.418 698.164 132.848 698.164 127.39C698.164 121.722 699.063 117.058 700.862 113.398C702.66 109.738 705.013 107.03 707.92 105.273C710.848 103.516 713.996 102.638 717.363 102.638C719.893 102.638 722.058 103.077 723.857 103.956C725.655 104.813 727.14 105.922 728.311 107.281C729.482 108.64 730.371 110.052 730.978 111.516H731.448V103.265H746.632V169.52H731.291ZM722.759 140.189C724.62 140.189 726.209 139.666 727.527 138.62C728.844 137.554 729.859 136.058 730.57 134.134C731.281 132.21 731.636 129.951 731.636 127.358C731.636 124.723 731.281 122.454 730.57 120.551C729.88 118.648 728.865 117.184 727.527 116.159C726.209 115.134 724.62 114.622 722.759 114.622C720.855 114.622 719.245 115.145 717.927 116.19C716.61 117.236 715.606 118.71 714.916 120.613C714.247 122.517 713.912 124.765 713.912 127.358C713.912 129.951 714.257 132.21 714.947 134.134C715.637 136.058 716.631 137.554 717.927 138.62C719.245 139.666 720.855 140.189 722.759 140.189Z" fill="#003377"/>
<path d="M787.421 130.652V103.265H802.73V151.451H788.112V142.479H787.61C786.543 145.428 784.724 147.77 782.151 149.506C779.6 151.221 776.515 152.078 772.897 152.078C769.613 152.078 766.727 151.325 764.238 149.82C761.75 148.314 759.815 146.212 758.435 143.514C757.055 140.795 756.354 137.616 756.333 133.977V103.265H771.673V130.966C771.694 133.58 772.384 135.64 773.744 137.146C775.103 138.652 776.954 139.405 779.296 139.405C780.823 139.405 782.193 139.07 783.406 138.401C784.64 137.711 785.612 136.717 786.323 135.42C787.055 134.103 787.421 132.513 787.421 130.652Z" fill="#003377"/>
<path d="M812.494 151.451V103.265H827.835V151.451H812.494ZM820.18 97.6501C818.026 97.6501 816.175 96.9391 814.628 95.5169C813.08 94.0739 812.306 92.338 812.306 90.3094C812.306 88.3016 813.08 86.5867 814.628 85.1646C816.175 83.7215 818.026 83 820.18 83C822.355 83 824.206 83.7215 825.733 85.1646C827.28 86.5867 828.054 88.3016 828.054 90.3094C828.054 92.338 827.28 94.0739 825.733 95.5169C824.206 96.9391 822.355 97.6501 820.18 97.6501Z" fill="#003377"/>
<path d="M864.797 103.265V114.559H834.399V103.265H864.797ZM840.767 91.7211H856.108V136.299C856.108 137.24 856.254 138.003 856.547 138.589C856.86 139.154 857.31 139.561 857.896 139.812C858.481 140.042 859.182 140.157 859.998 140.157C860.583 140.157 861.2 140.105 861.848 140.001C862.518 139.875 863.02 139.771 863.354 139.687L865.676 150.761C864.944 150.97 863.908 151.231 862.57 151.545C861.252 151.859 859.673 152.057 857.833 152.141C854.236 152.308 851.151 151.89 848.579 150.886C846.027 149.861 844.072 148.272 842.712 146.118C841.374 143.964 840.725 141.255 840.767 137.993V91.7211Z" fill="#003377"/>
<path d="M882.004 169.52C880.164 169.52 878.428 169.374 876.797 169.081C875.165 168.809 873.764 168.443 872.593 167.983L875.981 156.847C877.487 157.349 878.846 157.641 880.059 157.725C881.293 157.809 882.349 157.61 883.228 157.129C884.127 156.669 884.817 155.843 885.298 154.651L885.894 153.208L868.766 103.265H884.827L893.705 137.648H894.207L903.211 103.265H919.367L901.203 156.062C900.325 158.698 899.08 161.019 897.47 163.027C895.88 165.055 893.82 166.645 891.29 167.795C888.78 168.945 885.685 169.52 882.004 169.52Z" fill="#003377"/>
<path d="M352.851 258.451V194.204H379.39C384.201 194.204 388.352 195.145 391.845 197.027C395.358 198.888 398.067 201.492 399.97 204.838C401.873 208.164 402.824 212.033 402.824 216.446C402.824 220.879 401.852 224.759 399.907 228.084C397.983 231.388 395.233 233.95 391.656 235.77C388.08 237.589 383.835 238.499 378.92 238.499H362.544V226.265H376.034C378.376 226.265 380.332 225.857 381.9 225.041C383.49 224.225 384.692 223.086 385.508 221.622C386.323 220.137 386.731 218.411 386.731 216.446C386.731 214.459 386.323 212.744 385.508 211.301C384.692 209.837 383.49 208.707 381.9 207.913C380.311 207.118 378.355 206.721 376.034 206.721H368.379V258.451H352.851Z" fill="#003377"/>
<path d="M422.337 259.267C419.263 259.267 416.533 258.754 414.149 257.729C411.786 256.684 409.914 255.115 408.534 253.024C407.174 250.911 406.495 248.266 406.495 245.087C406.495 242.41 406.965 240.151 407.906 238.311C408.848 236.47 410.144 234.975 411.796 233.825C413.449 232.675 415.352 231.807 417.506 231.221C419.66 230.615 421.961 230.207 424.407 229.998C427.147 229.747 429.354 229.485 431.027 229.213C432.7 228.921 433.913 228.513 434.666 227.99C435.439 227.446 435.826 226.683 435.826 225.7V225.543C435.826 223.933 435.272 222.688 434.164 221.81C433.055 220.932 431.56 220.492 429.678 220.492C427.649 220.492 426.018 220.932 424.784 221.81C423.55 222.688 422.766 223.901 422.431 225.449L408.283 224.947C408.701 222.019 409.778 219.405 411.514 217.104C413.271 214.783 415.676 212.963 418.729 211.646C421.804 210.307 425.495 209.638 429.803 209.638C432.878 209.638 435.711 210.004 438.305 210.736C440.898 211.447 443.157 212.493 445.081 213.873C447.005 215.233 448.49 216.906 449.535 218.892C450.602 220.879 451.135 223.148 451.135 225.7V258.451H436.705V251.738H436.328C435.471 253.369 434.373 254.749 433.034 255.878C431.717 257.008 430.159 257.855 428.36 258.42C426.582 258.984 424.575 259.267 422.337 259.267ZM427.074 249.228C428.726 249.228 430.211 248.893 431.529 248.224C432.867 247.555 433.934 246.635 434.728 245.463C435.523 244.271 435.921 242.891 435.921 241.322V236.742C435.481 236.972 434.948 237.182 434.321 237.37C433.714 237.558 433.045 237.736 432.313 237.903C431.581 238.07 430.828 238.217 430.054 238.342C429.28 238.468 428.538 238.583 427.827 238.687C426.384 238.917 425.15 239.273 424.125 239.754C423.121 240.235 422.347 240.862 421.804 241.636C421.281 242.389 421.019 243.288 421.019 244.334C421.019 245.924 421.584 247.137 422.713 247.973C423.864 248.81 425.317 249.228 427.074 249.228Z" fill="#003377"/>
<path d="M460.515 258.451V210.265H475.416V219.049H475.918C476.797 215.87 478.229 213.507 480.216 211.959C482.203 210.391 484.514 209.607 487.149 209.607C487.86 209.607 488.592 209.659 489.345 209.764C490.098 209.847 490.798 209.983 491.447 210.171V223.504C490.715 223.253 489.753 223.054 488.561 222.908C487.389 222.761 486.344 222.688 485.423 222.688C483.604 222.688 481.962 223.096 480.498 223.912C479.055 224.706 477.915 225.825 477.079 227.268C476.263 228.691 475.855 230.364 475.855 232.288V258.451H460.515Z" fill="#003377"/>
<path d="M527.139 210.265V221.559H496.74V210.265H527.139ZM503.109 198.721H518.449V243.299C518.449 244.24 518.595 245.003 518.888 245.589C519.202 246.154 519.652 246.561 520.237 246.812C520.823 247.042 521.523 247.157 522.339 247.157C522.925 247.157 523.541 247.105 524.19 247.001C524.859 246.875 525.361 246.771 525.696 246.687L528.017 257.761C527.285 257.97 526.25 258.231 524.911 258.545C523.594 258.859 522.015 259.057 520.174 259.141C516.577 259.308 513.492 258.89 510.92 257.886C508.369 256.861 506.413 255.272 505.054 253.118C503.715 250.964 503.067 248.255 503.109 244.993V198.721Z" fill="#003377"/>
<path d="M550.306 230.97V258.451H534.966V210.265H549.553V219.112H550.086C551.153 216.163 552.972 213.852 555.545 212.179C558.117 210.485 561.181 209.638 564.736 209.638C568.124 209.638 571.063 210.401 573.552 211.928C576.061 213.434 578.006 215.546 579.387 218.265C580.788 220.963 581.478 224.121 581.457 227.739V258.451H566.117V230.751C566.138 228.074 565.458 225.982 564.078 224.476C562.718 222.971 560.826 222.218 558.4 222.218C556.789 222.218 555.367 222.573 554.133 223.284C552.92 223.974 551.979 224.968 551.31 226.265C550.661 227.561 550.327 229.13 550.306 230.97Z" fill="#003377"/>
<path d="M613.479 259.361C608.438 259.361 604.088 258.367 600.428 256.38C596.789 254.373 593.987 251.518 592.021 247.816C590.076 244.094 589.104 239.67 589.104 234.546C589.104 229.569 590.087 225.219 592.052 221.496C594.018 217.753 596.789 214.846 600.366 212.775C603.942 210.684 608.156 209.638 613.008 209.638C616.438 209.638 619.575 210.171 622.419 211.238C625.264 212.305 627.721 213.884 629.791 215.975C631.862 218.066 633.472 220.649 634.623 223.724C635.773 226.777 636.348 230.28 636.348 234.233V238.06H594.468V229.151H622.074C622.053 227.519 621.666 226.066 620.914 224.79C620.161 223.514 619.125 222.521 617.808 221.81C616.511 221.078 615.016 220.712 613.322 220.712C611.607 220.712 610.07 221.099 608.71 221.873C607.351 222.626 606.274 223.661 605.479 224.978C604.684 226.275 604.266 227.749 604.224 229.402V238.468C604.224 240.434 604.611 242.159 605.385 243.644C606.159 245.108 607.257 246.248 608.679 247.063C610.101 247.879 611.795 248.287 613.761 248.287C615.12 248.287 616.354 248.099 617.463 247.722C618.571 247.346 619.523 246.791 620.318 246.059C621.112 245.327 621.708 244.428 622.106 243.362L636.191 243.769C635.605 246.927 634.319 249.678 632.332 252.02C630.367 254.341 627.784 256.15 624.584 257.447C621.384 258.723 617.682 259.361 613.479 259.361Z" fill="#003377"/>
<path d="M644.183 258.451V210.265H659.084V219.049H659.586C660.464 215.87 661.897 213.507 663.884 211.959C665.87 210.391 668.181 209.607 670.816 209.607C671.528 209.607 672.26 209.659 673.012 209.764C673.765 209.847 674.466 209.983 675.114 210.171V223.504C674.382 223.253 673.42 223.054 672.228 222.908C671.057 222.761 670.011 222.688 669.091 222.688C667.272 222.688 665.63 223.096 664.166 223.912C662.723 224.706 661.583 225.825 660.746 227.268C659.931 228.691 659.523 230.364 659.523 232.288V258.451H644.183Z" fill="#003377"/>
<path d="M723.433 224.978L709.348 225.355C709.201 224.351 708.804 223.462 708.155 222.688C707.507 221.894 706.66 221.277 705.614 220.837C704.59 220.377 703.398 220.147 702.038 220.147C700.26 220.147 698.744 220.503 697.489 221.214C696.255 221.925 695.649 222.887 695.67 224.1C695.649 225.041 696.025 225.857 696.799 226.547C697.594 227.237 699.006 227.791 701.034 228.21L710.32 229.966C715.13 230.886 718.706 232.413 721.049 234.546C723.412 236.68 724.604 239.503 724.625 243.016C724.604 246.321 723.621 249.197 721.676 251.643C719.752 254.09 717.117 255.994 713.771 257.353C710.425 258.691 706.597 259.361 702.289 259.361C695.409 259.361 689.981 257.949 686.008 255.126C682.055 252.281 679.796 248.475 679.232 243.707L694.384 243.33C694.718 245.087 695.586 246.425 696.987 247.346C698.389 248.266 700.177 248.726 702.352 248.726C704.318 248.726 705.918 248.36 707.152 247.628C708.386 246.896 709.013 245.924 709.034 244.711C709.013 243.623 708.532 242.755 707.591 242.107C706.65 241.438 705.175 240.915 703.168 240.538L694.76 238.938C689.929 238.06 686.332 236.439 683.969 234.076C681.605 231.692 680.434 228.659 680.455 224.978C680.434 221.758 681.292 219.007 683.028 216.728C684.763 214.427 687.231 212.671 690.431 211.458C693.631 210.245 697.406 209.638 701.756 209.638C708.281 209.638 713.426 211.008 717.19 213.748C720.955 216.466 723.036 220.21 723.433 224.978Z" fill="#003377"/>
</svg>
