<svg width="300" height="300" viewBox="0 0 300 300" fill="none" xmlns="http://www.w3.org/2000/svg">
<path d="M228.924 62.9452C228.661 66.5935 228.806 70.2597 229.355 73.876C229.411 74.1895 229.561 74.4785 229.786 74.7036C230.011 74.9287 230.3 75.079 230.614 75.1343C234.227 75.679 237.889 75.8201 241.534 75.555C249.629 74.9958 256.179 72.4231 260.483 68.1193C263.682 64.9204 265.479 60.5817 265.479 56.0577C265.479 51.5337 263.682 47.195 260.483 43.9961C257.284 40.7971 252.945 39 248.421 39C243.897 39 239.558 40.7971 236.359 43.9961C232.056 48.2999 229.483 54.8502 228.924 62.9452Z" fill="#3175FA"/>
<path d="M49.2002 108.163C52.7293 99.6925 62.4569 95.6867 70.9274 99.2158L182.232 145.589C190.702 149.118 194.708 158.846 191.179 167.316C187.65 175.787 177.922 179.793 169.452 176.263L58.1474 129.89C49.6769 126.361 45.6711 116.634 49.2002 108.163Z" fill="#003377"/>
<path d="M55.2374 158.587C60.7397 151.243 71.1534 149.751 78.497 155.253L156.457 213.667C163.801 219.169 165.293 229.583 159.791 236.926C154.289 244.27 143.875 245.763 136.531 240.26L58.5711 181.846C51.2276 176.344 49.735 165.93 55.2374 158.587Z" fill="#003377"/>
<path d="M47.1598 116.513C45.8983 107.424 52.2439 99.0331 61.3331 97.7716L203.12 78.0934C212.209 76.8319 220.6 83.1775 221.861 92.2667C223.122 101.356 216.777 109.747 207.688 111.008L65.9012 130.686C56.8121 131.948 48.4212 125.602 47.1598 116.513Z" fill="#3175FA"/>
<path d="M51.7523 169.491C51.1743 160.333 58.1297 152.44 67.2878 151.862L176.528 144.967C185.686 144.389 193.579 151.345 194.157 160.503C194.735 169.661 187.78 177.553 178.622 178.131L69.3811 185.027C60.223 185.605 52.3304 178.649 51.7523 169.491Z" fill="#3175FA"/>
<path d="M51.7556 233.854C51.1503 224.697 58.0822 216.784 67.2385 216.179L146.026 210.97C155.183 210.365 163.096 217.297 163.701 226.453C164.307 235.61 157.375 243.523 148.218 244.128L69.4304 249.337C60.2741 249.942 52.3608 243.01 51.7556 233.854Z" fill="#3175FA"/>
</svg>
